<svg width="32" height="32" viewBox="0 0 32 32" fill="none" xmlns="http://www.w3.org/2000/svg">
  <rect width="32" height="32" rx="6" fill="url(#gradient)"/>
  <path d="M9.33325 18.6667C9.17555 18.6672 9.02094 18.623 8.88737 18.5391C8.75381 18.4553 8.64677 18.3353 8.5787 18.193C8.51063 18.0508 8.48432 17.8921 8.50283 17.7355C8.52133 17.5789 8.5839 17.4308 8.68325 17.3083L16.9332 8.80833C16.9951 8.73689 17.0795 8.68862 17.1724 8.67144C17.2653 8.65425 17.3613 8.66917 17.4447 8.71375C17.528 8.75832 17.5937 8.82991 17.631 8.91675C17.6683 9.00359 17.675 9.10053 17.6499 9.19166L16.0499 14.2083C16.0027 14.3346 15.9869 14.4704 16.0037 14.6042C16.0206 14.7379 16.0696 14.8656 16.1467 14.9762C16.2237 15.0868 16.3264 15.1771 16.446 15.2393C16.5656 15.3015 16.6984 15.3338 16.8332 15.3333H22.6666C22.8243 15.3328 22.9789 15.377 23.1124 15.4608C23.246 15.5447 23.3531 15.6647 23.4211 15.8069C23.4892 15.9492 23.5155 16.1078 23.497 16.2644C23.4785 16.4211 23.4159 16.5692 23.3166 16.6917L15.0666 25.1917C15.0047 25.2631 14.9204 25.3114 14.8274 25.3285C14.7345 25.3457 14.6385 25.3308 14.5551 25.2862C14.4718 25.2417 14.4061 25.1701 14.3688 25.0832C14.3315 24.9964 14.3249 24.8995 14.3499 24.8083L15.9499 19.7917C15.9971 19.6654 16.0129 19.5296 15.9961 19.3958C15.9792 19.2621 15.9302 19.1344 15.8532 19.0238C15.7761 18.9132 15.6734 18.8229 15.5538 18.7607C15.4343 18.6985 15.3014 18.6662 15.1666 18.6667H9.33325Z" 
        stroke="white" 
        stroke-width="1.66667" 
        stroke-linecap="round" 
        stroke-linejoin="round"/>
  <defs>
    <linearGradient id="gradient" x1="0" y1="0" x2="32" y2="0" gradientUnits="userSpaceOnUse">
      <stop offset="0%" stop-color="#B18BEF"/>
      <stop offset="100%" stop-color="#4B00A8"/>
    </linearGradient>
  </defs>
</svg>
